<?xml version="1.0" encoding="UTF-8"?>
<svg id="Layer_1" data-name="Layer 1" xmlns="http://www.w3.org/2000/svg" viewBox="0 0 299.91 96.89">
  <defs>
    <style>
      .cls-1 {
        fill: #192230;
      }

      .cls-2 {
        fill: #3eaba7;
      }
    </style>
  </defs>
  <g>
    <path class="cls-2" d="M41.4,78.88c-4.51,3.24-10.1-.84-10.08-7.34,0-3.1,1.38-5.96,3.58-7.43l15.81-10.56-15.63-10.38c-2.22-1.47-3.62-4.39-3.6-7.54.02-6.55,5.69-10.6,10.19-7.34l14.7,10.65c1.7,1.22,2.7,3.19,2.67,5.28l-.07,18.76c0,2.06-1.02,4.01-2.7,5.23l-14.86,10.72-.02-.05Z"/>
    <path class="cls-2" d="M21.23,59.76c4.51,3.24,10.1-.84,10.08-7.34,0-3.1-1.38-5.96-3.58-7.43l-15.81-10.56,15.63-10.38c2.22-1.47,3.62-4.39,3.6-7.54-.02-6.55-5.69-10.6-10.19-7.34l-14.7,10.65c-1.7,1.22-2.7,3.19-2.67,5.28l.07,18.76c0,2.06,1.02,4.01,2.7,5.23l14.86,10.72.02-.05Z"/>
  </g>
  <path class="cls-1" d="M187.74,14.77v9.13c-.45.05-.84.14-1.22.14-9.33.16-12.98,3.9-12.98,13.34,0,6.09,0,12.21-.05,18.33,0,.16-.11.34-.25.72h-9.49v-19.44c.07-14.05,9.88-23.22,23.97-22.18l.02-.05Z"/>
  <path class="cls-1" d="M107.77,6.95l-11.17,37.02h-.7l-11.17-37.02h-12.46l14.7,42.02c.18.54.41,1.06.63,1.56.72,1.5,1.7,2.74,2.9,3.72,1.38,1.11,3.06,1.81,5.01,1.97l.86.05c.23,0,.43,0,.63-.05.23,0,.45-.05.68-.07,3.13-.39,5.41-2.24,6.89-5.01.11-.2.2-.41.32-.61.25-.5.45-1.02.63-1.56l14.7-42.02h-12.46Z"/>
  <path class="cls-1" d="M211.46,55.46c-.57.18-1.34.39-2.33.61-1.02.25-2.22.39-3.65.41h-.34c-2.08-.05-3.94-.39-5.53-1.06-1.99-.79-3.58-2.04-4.64-3.76-1.13-1.74-1.65-3.87-1.65-6.5V6.59h9.95v9.56h8.61v8.27h-8.61v19.28c0,1.02.14,1.79.45,2.38.34.57.75.95,1.31,1.2.57.2,1.2.32,1.95.32h1.11c.52,0,1.04-.05,1.59-.14h.07l1.74,8.02-.02-.02Z"/>
  <path class="cls-1" d="M296.33,56.2h-10.33l-6.41-11.89c-.97-1.81-3.58-1.79-4.55,0l-6.23,11.89h-10.53l12.32-20.73-11.89-20.75h10.1l6.23,11.89c.97,1.81,3.56,1.83,4.55,0l6.41-11.89h9.88l-11.89,20.75,12.32,20.73h.02Z"/>
  <path class="cls-1" d="M149.46,37.24c-.72,5.94-5.75,10.49-11.87,10.49-2.17,0-4.19-.57-5.94-1.59l8.47-7.5,5.35-4.76h0l3.15-2.81,1.74-1.56.54-.48,4.39-3.94c-.11-.2-.25-.45-.41-.63-1.27-1.97-2.88-3.72-4.73-5.14-3.49-2.67-7.82-4.26-12.57-4.26-11.42,0-20.66,9.24-20.66,20.66s9.27,20.64,20.66,20.64,19.85-8.45,20.62-19.17h-8.74v.05ZM137.59,23.76c2.15,0,4.15.57,5.89,1.54l-5.78,5.14-11.17,9.9c-.61-1.4-.93-2.99-.93-4.6,0-6.62,5.37-11.98,11.96-11.98h.02Z"/>
  <path class="cls-1" d="M248.62,37.38c-.72,5.94-5.75,10.49-11.87,10.49-2.17,0-4.19-.57-5.94-1.59l8.47-7.5,5.35-4.76h0l3.15-2.81,1.74-1.56.54-.48,4.39-3.94c-.11-.2-.25-.45-.41-.63-1.27-1.97-2.88-3.72-4.73-5.14-3.49-2.67-7.82-4.26-12.57-4.26-11.42,0-20.66,9.24-20.66,20.66s9.27,20.64,20.66,20.64,19.85-8.45,20.62-19.17h-8.74v.05ZM236.74,23.9c2.15,0,4.15.57,5.89,1.54l-5.78,5.14-11.17,9.9c-.61-1.4-.93-2.99-.93-4.6,0-6.62,5.37-11.98,11.96-11.98h.02Z"/>
  <path class="cls-1" d="M183.17,84.45h-3.47l-2.15-4.01c-.34-.61-1.2-.61-1.54,0l-2.11,3.99h-3.53l4.15-6.98-3.99-6.98h3.4l2.11,3.99c.32.61,1.2.61,1.54,0l2.15-4.01h3.33l-3.99,6.98,4.15,6.98-.05.05Z"/>
  <path class="cls-1" d="M155.03,66.24c0-.5.41-.91.91-.91h11.92v2.47h-9.9v5.84h8.2v2.49h-8.2v5.94h9.9v2.49h-11.92c-.5,0-.91-.41-.91-.91v-17.42h0Z"/>
  <path class="cls-1" d="M184.93,90.3v-13.41c0-.97.2-1.88.63-2.67.43-.82.97-1.5,1.68-2.08.68-.59,1.47-1.04,2.36-1.38.88-.32,1.77-.5,2.65-.5,1,0,1.95.16,2.83.5.91.32,1.7.79,2.38,1.4.68.61,1.25,1.38,1.65,2.27.41.91.61,1.93.61,3.08,0,1.04-.16,1.99-.5,2.9-.34.91-.82,1.7-1.4,2.36-.61.68-1.36,1.2-2.22,1.59-.88.39-1.86.59-2.95.59-.5,0-1-.07-1.5-.23s-.95-.36-1.36-.59c-.41-.25-.79-.54-1.11-.86-.32-.34-.59-.68-.79-1.02v8.04h-2.95l-.02.02ZM192.41,82.66c.77,0,1.4-.16,1.95-.45.54-.32,1-.7,1.34-1.2s.61-1.04.79-1.65c.18-.61.25-1.22.25-1.86,0-.75-.11-1.4-.34-1.99-.23-.59-.54-1.09-.93-1.5s-.84-.72-1.38-.95c-.52-.23-1.09-.34-1.72-.34s-1.22.11-1.79.34c-.54.23-1.04.54-1.45.97-.41.43-.72.93-.95,1.54-.23.59-.34,1.27-.34,2.02,0,.63.11,1.25.32,1.86s.52,1.16.91,1.63.88.86,1.43,1.16,1.18.43,1.86.43h.07Z"/>
  <path class="cls-1" d="M218.07,77.16c0-1.34.16-2.45.48-3.31s.77-1.56,1.34-2.06c.59-.5,1.27-.86,2.08-1.06s1.72-.29,2.72-.29c.39,0,.77,0,1.18.05.41.02.82.07,1.25.09v2.17c-.77-.05-1.47-.09-2.15-.09-.59,0-1.13.05-1.63.16s-.91.32-1.27.63-.63.77-.82,1.38c-.18.59-.29,1.38-.29,2.36v7.45h-2.9v-7.48h.02Z"/>
  <path class="cls-1" d="M228.92,66.94c0-.14.02-.29.09-.48.05-.18.14-.34.27-.48.14-.14.29-.27.52-.39s.5-.16.82-.16.61.05.84.16c.23.09.41.23.52.39.14.16.23.32.27.5s.09.34.09.48-.02.29-.09.48c-.05.18-.14.34-.27.5s-.29.27-.52.39c-.23.09-.5.16-.84.16s-.59-.05-.82-.16-.39-.23-.52-.39c-.14-.14-.23-.32-.27-.5s-.09-.34-.09-.45v-.05ZM229.15,70.5h2.95v14.09h-2.95v-14.09Z"/>
  <path class="cls-1" d="M250.41,77.16c0-1.02.11-1.95.34-2.76s.61-1.56,1.13-2.17,1.22-1.09,2.06-1.43,1.9-.5,3.15-.5,2.29.16,3.15.5,1.52.82,2.06,1.43c.52.61.91,1.34,1.13,2.17.23.84.34,1.77.34,2.76v7.45h-2.95v-7.43c0-1.45-.29-2.58-.86-3.38-.57-.82-1.52-1.2-2.88-1.2s-2.33.41-2.9,1.2-.86,1.93-.86,3.4v7.43h-2.95v-7.45l.02-.02Z"/>
  <path class="cls-1" d="M279.27,80.51c-.23.59-.54,1.13-.91,1.68-.36.54-.82,1.02-1.34,1.43-.52.41-1.13.75-1.81,1-.7.25-1.52.39-2.42.39-1.27,0-2.36-.23-3.24-.68-.91-.45-1.63-1.04-2.2-1.74-.57-.72-.97-1.52-1.22-2.4s-.39-1.77-.39-2.63.14-1.74.39-2.63.66-1.7,1.22-2.4c.57-.72,1.29-1.29,2.2-1.74.91-.45,1.97-.68,3.24-.68.95,0,1.77.11,2.49.36.72.25,1.34.59,1.86,1,.52.43.97.93,1.31,1.5s.63,1.18.86,1.81l-2.76.68c-.14-.41-.32-.79-.5-1.16-.18-.36-.41-.66-.7-.93-.29-.27-.63-.48-1.04-.63-.41-.16-.91-.23-1.52-.23-1.25,0-2.27.45-3.01,1.34-.77.91-1.13,2.15-1.13,3.74s.36,2.83,1.11,3.74,1.77,1.34,3.04,1.34c.57,0,1.04-.09,1.45-.25.41-.18.77-.39,1.06-.66s.54-.57.77-.91c.2-.34.39-.68.52-1.02l2.7.77-.02-.07Z"/>
  <path class="cls-1" d="M213.37,78.32c-.36,2.17-2.24,3.78-4.46,3.78-.82,0-1.59-.2-2.24-.61l-.27-.16,3.28-2.9,3.72-3.31.18-.16,1.45-1.29-.05-.07c-.43-.68-1-1.29-1.65-1.79-1.27-.97-2.79-1.5-4.39-1.5-3.99,0-7.23,3.24-7.23,7.23s3.24,7.23,7.23,7.23,6.8-2.7,7.18-6.46h-2.74ZM204.72,79.43c-.32-.57-.52-1.02-.52-1.9,0-2.76,2.06-4.85,4.83-4.85.86,0,1.74.23,2.45.63l.27.16-6.89,6.21-.14-.25Z"/>
  <path class="cls-1" d="M245.83,78.32c-.36,2.17-2.24,3.78-4.46,3.78-.82,0-1.59-.2-2.24-.61l-.27-.16,3.28-2.9,3.72-3.31.18-.16,1.45-1.29-.05-.07c-.43-.68-1-1.29-1.65-1.79-1.27-.97-2.79-1.5-4.39-1.5-3.99,0-7.23,3.24-7.23,7.23s3.24,7.23,7.23,7.23,6.8-2.7,7.18-6.46h-2.74ZM237.17,79.43c-.32-.57-.52-1.02-.52-1.9,0-2.76,2.06-4.85,4.83-4.85.86,0,1.74.23,2.45.63l.27.16-6.89,6.21-.14-.25Z"/>
  <path class="cls-1" d="M293.14,78.32c-.36,2.17-2.24,3.78-4.46,3.78-.82,0-1.59-.2-2.24-.61l-.27-.16,3.28-2.9,3.72-3.31.18-.16,1.45-1.29-.05-.07c-.43-.68-1-1.29-1.65-1.79-1.27-.97-2.79-1.5-4.39-1.5-3.99,0-7.23,3.24-7.23,7.23s3.24,7.23,7.23,7.23,6.8-2.7,7.18-6.46h-2.74ZM284.49,79.43c-.32-.57-.52-1.02-.52-1.9,0-2.76,2.06-4.85,4.83-4.85.86,0,1.74.23,2.45.63l.27.16-6.89,6.21-.14-.25Z"/>
</svg>